<?xml version="1.0" encoding="UTF-8" standalone="no"?>
<!-- Created with Inkscape (http://www.inkscape.org/) -->
<svg id="svg4455" xmlns:rdf="http://www.w3.org/1999/02/22-rdf-syntax-ns#" xmlns="http://www.w3.org/2000/svg" height="90" width="450" version="1.1" xmlns:cc="http://creativecommons.org/ns#" xmlns:dc="http://purl.org/dc/elements/1.1/">
 <metadata id="metadata4460">
  <rdf:RDF>
   <cc:Work rdf:about="">
    <dc:format>image/svg+xml</dc:format>
    <dc:type rdf:resource="http://purl.org/dc/dcmitype/StillImage"/>
    <dc:title/>
   </cc:Work>
  </rdf:RDF>
 </metadata>
 <g id="layer1">
  <g id="g26" fill="#FFF" transform="matrix(4.3225599,0,0,-4.3225599,-410.02495,1212.4984)">
   <text id="text28" fill="#ffffff" transform="matrix(0.82336,0,0,-1,103.065,270.783)">
    <tspan id="tspan30" style="writing-mode:lr-tb;" font-weight="bold" fill-rule="nonzero" font-size="10.57979965px" font-variant="normal" y="0" x="0 5.8823686 13.520985 21.159599 28.798216 37.029301 44.086025 50.000019 52.64497 59.109226 63.22477 73.212097 80.268829 87.90744 94.964172 102.05257" font-family="Liberation Serif" fill="#ffffff">SANCHES PIMENTEL</tspan>
   </text>
  </g>
  <path id="path32" d="m18.786,54.23,418.43,0,0-2.7185-418.43,0,0,2.7185z" fill-rule="nonzero" fill="#C93"/>
  <g id="g34" fill="#000" transform="matrix(4.3225599,0,0,-4.3225599,-410.02495,1212.4984)">
   <text id="text36" fill="#ffffff" transform="matrix(0.882135,0,0,-1,111.374,262.028)">
    <tspan id="tspan38" style="writing-mode:lr-tb;" font-weight="normal" fill-rule="nonzero" font-size="5.96238995px" font-variant="normal" y="0" x="0 4.0544901 8.4369402 12.81319 16.205591 20.588041 23.754257 27.367277 31.749727 35.804218 37.867256 41.921577 43.483841 47.204468 48.438602 52.821053 57.203503 61.57975 65.962204 70.016693 74.399139 78.453629 80.51667" font-family="Liberation Serif" fill="#ffffff">CONSULTORIA E ADVOCACIA</tspan>
   </text>
  </g>
 </g>
</svg>
